<?xml version="1.0" standalone="no"?>
<!DOCTYPE svg PUBLIC "-//W3C//DTD SVG 20010904//EN"
 "http://www.w3.org/TR/2001/REC-SVG-20010904/DTD/svg10.dtd">
<svg version="1.0" xmlns="http://www.w3.org/2000/svg"
 width="1024.000000pt" height="1024.000000pt" viewBox="0 0 1024.000000 1024.000000"
 preserveAspectRatio="xMidYMid meet">
<metadata>
Created by potrace 1.14, written by Peter Selinger 2001-2017
</metadata>
<g transform="translate(0.000000,1024.000000) scale(0.100000,-0.100000)"
fill="#000000" stroke="none">
<path d="M4625 10230 c-3 -5 -4 -10 0 -10 3 0 -1 -13 -10 -29 -8 -17 -17 -40
-19 -53 -3 -13 -5 -24 -7 -25 -1 -2 -2 -6 -4 -10 -1 -5 -4 -15 -7 -23 -12 -31
-61 -175 -63 -185 -1 -5 -5 -17 -8 -25 -18 -48 -69 -198 -72 -215 -7 -32 -44
-128 -52 -136 -5 -4 -30 -11 -58 -15 -27 -3 -59 -10 -71 -15 -12 -4 -24 -5
-27 -2 -3 3 -11 1 -18 -3 -7 -4 -22 -9 -34 -10 -11 -1 -49 -10 -85 -19 -65
-17 -81 -21 -122 -30 -13 -3 -34 -9 -48 -14 -14 -5 -59 -19 -100 -32 -41 -13
-77 -24 -80 -25 -3 0 -20 -5 -38 -9 -18 -4 -35 -12 -38 -16 -14 -23 -53 -4
-114 52 -36 34 -114 107 -174 163 -60 55 -142 132 -182 170 -40 38 -87 81
-105 96 l-31 28 -56 -31 c-32 -16 -74 -41 -94 -54 -21 -13 -40 -23 -43 -23 -4
0 -26 -14 -51 -30 -24 -17 -44 -27 -44 -23 0 4 -4 3 -8 -3 -4 -6 -50 -35 -102
-64 -179 -101 -505 -292 -513 -300 -5 -4 1 -54 12 -111 12 -57 23 -115 25
-129 2 -14 20 -101 40 -194 20 -93 33 -172 30 -177 -3 -5 0 -9 6 -9 7 0 10 -6
7 -12 -2 -7 0 -26 5 -43 16 -53 20 -88 10 -94 -48 -30 -342 -316 -455 -442
-68 -76 -69 -76 -105 -68 -20 4 -48 10 -62 13 -14 3 -63 15 -110 27 -111 27
-121 29 -145 34 -11 2 -29 6 -40 9 -11 3 -51 12 -90 21 -38 8 -84 20 -102 26
-18 6 -37 8 -42 5 -5 -4 -12 -2 -15 3 -3 4 -25 12 -48 16 -24 4 -50 9 -59 11
-14 3 -37 -32 -159 -245 -9 -14 -32 -54 -53 -89 -20 -35 -37 -67 -37 -73 0 -5
-4 -9 -10 -9 -5 0 -10 -5 -10 -10 0 -6 -15 -35 -34 -64 -18 -29 -37 -62 -40
-74 -4 -12 -12 -22 -17 -22 -5 0 -9 -4 -9 -9 0 -5 -12 -30 -28 -56 -15 -26
-36 -64 -48 -84 -11 -20 -40 -69 -64 -110 -38 -65 -41 -75 -27 -83 10 -5 17
-13 17 -18 0 -4 15 -24 33 -43 28 -30 102 -114 160 -180 19 -23 23 -27 127
-147 35 -41 74 -86 87 -100 65 -71 74 -85 68 -110 -6 -28 -9 -39 -18 -60 -7
-17 -57 -167 -63 -190 -2 -8 -19 -72 -38 -142 -19 -71 -32 -128 -29 -128 3 0
1 -6 -4 -12 -6 -7 -10 -20 -11 -28 0 -31 -34 -175 -43 -184 -5 -5 -17 -11 -26
-12 -17 -1 -312 -88 -343 -101 -8 -3 -19 -7 -25 -9 -5 -1 -62 -19 -125 -39
-142 -44 -126 -39 -182 -55 -27 -7 -48 -17 -49 -24 -6 -63 -3 -1035 3 -1048 4
-9 22 -20 40 -23 18 -4 39 -11 48 -16 8 -4 114 -40 235 -80 121 -39 245 -81
275 -91 30 -11 60 -21 65 -23 6 -2 20 -6 32 -10 12 -4 24 -6 26 -4 10 11 34
-32 40 -71 8 -52 11 -69 33 -164 18 -80 36 -150 61 -233 9 -32 18 -67 20 -77
2 -11 8 -25 14 -33 6 -7 9 -13 5 -13 -3 0 12 -49 33 -109 l38 -108 -26 -30
c-22 -25 -95 -107 -176 -197 -11 -13 -51 -58 -90 -101 -38 -43 -81 -90 -95
-105 -81 -86 -145 -166 -142 -178 3 -14 61 -113 72 -122 3 -3 11 -16 17 -30 7
-14 24 -43 38 -65 13 -22 34 -57 45 -77 11 -20 24 -39 30 -43 5 -3 10 -15 10
-25 0 -10 3 -20 8 -22 10 -4 62 -86 62 -98 0 -5 4 -10 9 -10 5 0 11 -8 14 -17
7 -20 30 -59 106 -183 28 -45 51 -84 51 -86 0 -3 14 -25 30 -49 17 -24 30 -48
30 -54 0 -18 18 -22 62 -12 24 6 54 12 68 15 14 3 34 7 45 10 73 17 114 26
145 31 19 3 49 10 65 15 17 5 41 11 55 14 60 10 236 48 250 54 8 3 22 6 30 7
8 0 29 4 47 9 30 7 35 4 85 -51 85 -93 307 -313 385 -382 83 -73 80 -52 38
-241 -15 -63 -28 -124 -31 -135 -2 -11 -6 -31 -9 -45 -4 -14 -8 -36 -11 -50
-4 -23 -14 -64 -45 -200 -6 -25 -12 -57 -14 -72 -2 -15 -9 -45 -15 -68 -12
-43 -7 -60 16 -60 8 0 14 -4 14 -10 0 -5 4 -10 10 -10 8 0 106 -52 150 -80 8
-6 44 -26 80 -46 36 -20 81 -45 100 -56 19 -11 53 -30 75 -41 22 -12 42 -24
45 -27 3 -3 18 -12 35 -20 16 -8 67 -36 111 -62 45 -27 87 -48 93 -48 6 0 11
-4 11 -10 0 -5 4 -10 9 -10 5 0 44 -20 87 -44 l78 -45 35 31 c20 17 74 66 121
108 47 43 107 97 134 121 26 24 58 53 70 64 41 37 173 155 205 184 35 31 35
31 131 -4 57 -20 307 -92 340 -98 14 -2 32 -7 40 -10 8 -3 29 -8 45 -11 26 -4
47 -9 105 -21 8 -2 23 -4 32 -4 14 -1 26 -19 34 -53 1 -5 3 -10 4 -13 1 -3 3
-8 4 -12 1 -5 10 -35 21 -68 10 -33 19 -64 21 -70 1 -5 13 -45 27 -87 13 -42
22 -80 19 -83 -3 -3 0 -5 7 -5 7 0 10 -4 6 -10 -3 -5 -1 -17 4 -27 9 -15 48
-139 57 -178 1 -5 9 -30 17 -55 8 -25 18 -60 22 -78 4 -22 13 -33 28 -37 12
-2 253 -3 536 -2 l513 2 23 62 c13 34 21 64 18 67 -4 3 -2 6 4 6 5 0 10 6 10
13 0 6 28 95 63 197 34 102 63 190 64 195 1 6 7 24 13 40 23 63 26 70 29 88 6
30 33 87 41 88 4 0 15 2 23 4 8 2 33 6 55 10 22 3 57 11 78 16 21 6 50 12 65
14 15 2 81 18 147 36 66 17 128 32 138 32 9 1 17 6 17 11 0 5 3 7 6 3 4 -3 19
0 35 9 16 8 29 12 29 10 0 -3 30 6 66 18 l65 23 33 -31 c18 -17 77 -72 132
-123 201 -187 279 -259 343 -320 36 -35 73 -63 81 -63 8 0 31 10 50 22 37 22
245 143 319 186 25 14 67 38 93 53 27 16 53 29 58 29 6 0 10 4 10 9 0 5 10 13
23 17 12 3 29 12 37 19 8 7 39 26 68 41 29 16 61 34 70 39 9 6 49 28 87 49
112 63 106 42 67 228 -18 90 -35 174 -37 188 -3 14 -21 102 -40 195 -49 230
-48 216 -16 245 16 14 66 59 112 100 94 85 269 259 344 343 34 38 53 53 61 46
6 -5 24 -11 40 -13 40 -6 82 -15 129 -28 44 -11 67 -16 105 -24 14 -3 34 -8
45 -11 11 -4 28 -8 38 -9 9 -1 18 -2 20 -4 2 -2 20 -6 57 -14 30 -7 61 -14
115 -28 22 -5 51 -10 65 -11 14 -1 27 -4 30 -8 3 -3 27 -10 54 -16 39 -9 52
-8 63 2 7 8 13 17 13 21 0 4 18 35 40 70 22 35 40 65 40 67 0 4 244 422 260
447 6 8 13 23 16 33 4 9 10 17 14 17 5 0 12 10 15 21 4 12 34 66 66 119 32 54
59 102 59 106 0 5 -13 23 -28 40 -15 18 -36 42 -47 55 -12 13 -56 65 -99 114
-43 50 -99 114 -125 144 -25 29 -55 63 -66 75 -101 108 -142 162 -134 176 15
25 115 339 139 435 12 50 25 97 28 105 3 8 6 20 6 25 2 12 19 98 21 105 1 3 5
24 10 48 4 23 9 42 10 42 2 0 61 18 132 41 70 22 133 41 138 43 6 1 37 11 70
21 62 19 73 22 103 29 9 3 18 5 20 6 1 2 5 3 10 5 4 1 14 4 22 7 8 4 56 18
105 33 50 14 97 29 105 32 8 4 20 7 25 7 15 1 17 1066 2 1071 -32 10 -253 86
-337 115 -52 18 -103 33 -112 33 -10 1 -18 4 -18 8 0 4 -12 9 -27 12 -16 2
-62 17 -103 32 -41 15 -84 29 -95 30 -20 2 -28 24 -40 107 -3 21 -12 68 -21
105 -9 38 -18 77 -20 88 -8 40 -13 62 -39 160 -14 55 -28 107 -32 115 -3 8 -7
18 -8 23 -2 4 -4 10 -5 15 -1 4 -2 11 -1 16 1 4 -2 13 -7 20 -5 6 -19 43 -31
81 -12 39 -25 77 -28 85 -13 32 -14 30 87 139 29 31 160 177 187 207 43 50
161 180 194 214 l35 37 -39 64 c-21 35 -48 80 -58 99 -22 39 -32 56 -71 117
-16 23 -28 45 -28 48 0 4 -15 30 -34 58 -39 61 -179 295 -189 317 -4 8 -32 55
-62 103 -30 48 -55 93 -55 99 0 13 -41 6 -189 -28 -80 -19 -120 -27 -143 -28
-10 0 -18 -3 -18 -6 0 -3 -8 -6 -18 -7 -10 -1 -58 -11 -107 -22 -50 -11 -101
-22 -115 -25 -14 -2 -56 -11 -94 -20 -68 -16 -69 -16 -88 6 -59 69 -159 177
-231 249 -72 71 -124 120 -264 245 -31 27 -32 31 -23 69 8 34 41 184 54 251 2
10 16 71 30 134 15 63 29 125 31 137 7 31 14 63 21 93 20 88 18 95 -20 110
-20 7 -36 17 -36 22 0 4 -4 8 -9 8 -5 0 -47 21 -93 48 -46 26 -96 54 -113 62
-16 8 -32 17 -35 21 -3 3 -34 21 -70 41 -117 63 -164 90 -255 143 -293 169
-272 162 -327 111 -25 -22 -77 -70 -117 -105 -39 -35 -87 -78 -105 -95 -30
-28 -71 -64 -210 -190 -22 -20 -44 -36 -49 -36 -4 0 -6 -4 -2 -9 3 -5 -4 -12
-15 -16 -22 -7 -140 25 -140 38 0 4 -4 6 -9 3 -5 -4 -22 -1 -38 5 -15 7 -32
13 -38 14 -25 6 -131 37 -145 42 -8 3 -19 7 -25 8 -5 1 -12 3 -15 4 -3 2 -14
4 -25 6 -11 2 -31 6 -45 9 -147 34 -245 54 -251 51 -6 -4 -28 52 -35 92 -3 15
-8 31 -12 37 -3 6 -7 16 -8 21 -2 12 -63 214 -71 235 -3 8 -7 20 -8 25 -8 31
-87 284 -95 303 l-10 22 -529 0 c-342 0 -532 -4 -536 -10z m533 -1199 c8 -1
11 -14 7 -43 -3 -24 -7 -65 -10 -93 -6 -52 -10 -82 -21 -175 -3 -30 -7 -76 -9
-101 -1 -26 -6 -52 -9 -58 -4 -6 -2 -11 4 -11 7 0 8 -6 2 -17 -6 -9 -6 -29 -2
-45 5 -15 6 -28 2 -28 -4 0 -7 -29 -7 -65 0 -36 3 -65 7 -65 4 0 3 -11 -2 -25
-5 -13 -6 -27 -1 -29 4 -3 8 0 8 7 1 49 125 482 142 497 3 3 7 12 9 20 5 25
54 132 82 180 25 43 28 45 71 44 44 -2 144 -11 190 -19 13 -2 47 -7 74 -11 57
-8 88 -12 95 -13 3 -1 -15 -12 -39 -26 -137 -79 -265 -220 -312 -344 -25 -68
-28 -80 -35 -155 l-6 -59 23 22 c34 32 108 68 219 107 52 19 97 34 99 34 2 0
-14 -14 -35 -31 -77 -61 -194 -192 -194 -217 0 -6 -4 -12 -8 -14 -13 -5 -61
-120 -76 -184 -21 -86 -26 -131 -32 -309 -3 -88 -7 -198 -9 -245 -2 -47 -4
-105 -4 -129 -1 -38 -3 -42 -17 -30 -25 20 -70 90 -108 167 -35 69 -60 127
-55 127 2 0 -4 14 -13 30 -9 17 -29 62 -43 100 -15 39 -30 73 -34 78 -4 4 -24
-39 -45 -95 -50 -137 -89 -219 -123 -256 -7 -7 -13 -16 -13 -20 0 -14 -101
-124 -107 -118 -2 2 -6 16 -9 32 -8 44 -74 317 -81 334 -3 8 -7 20 -8 25 0 6
-4 17 -6 25 -20 57 -60 178 -64 194 -2 10 -11 29 -20 42 -17 26 -20 48 -5 39
5 -3 18 -8 27 -10 26 -6 185 -64 205 -76 40 -21 47 -12 31 39 -8 26 -16 52
-17 57 -21 92 -167 521 -237 698 -39 98 -70 180 -68 182 2 2 38 6 79 10 l75 7
17 -39 c9 -21 33 -76 53 -123 20 -47 43 -99 51 -117 8 -17 14 -37 14 -45 0 -8
4 -18 9 -23 5 -6 16 -32 25 -60 19 -63 66 -188 72 -195 5 -4 -1 77 -11 155 -2
17 -6 51 -9 77 -3 26 -10 85 -16 130 -6 46 -14 122 -16 170 l-6 87 39 3 c35 3
181 2 211 -1z m-743 -69 c16 -10 100 -190 97 -204 -1 -5 3 -8 10 -8 6 0 9 -3
5 -6 -3 -4 3 -24 13 -45 11 -21 20 -45 20 -54 0 -8 5 -15 12 -15 6 0 8 -3 5
-6 -3 -4 -2 -15 4 -26 13 -24 72 -189 105 -293 15 -44 30 -89 34 -100 22 -53
21 -58 -3 -51 -13 3 -41 13 -63 23 -21 9 -41 17 -44 18 -9 3 -44 16 -65 25
-40 17 -260 102 -270 105 -5 1 -23 7 -39 14 -58 23 -37 0 28 -31 37 -18 75
-37 84 -42 40 -22 123 -132 170 -228 43 -87 104 -250 116 -307 2 -9 6 -23 9
-31 8 -23 45 -184 66 -289 l18 -94 -46 -20 c-25 -11 -89 -40 -141 -64 -52 -24
-97 -43 -99 -43 -2 1 -7 -2 -10 -7 -6 -8 -31 -23 -86 -52 -16 -9 -34 -21 -40
-26 -5 -6 -36 -28 -67 -49 -32 -21 -58 -43 -58 -49 0 -6 -3 -8 -6 -4 -16 16
-253 -227 -342 -352 -40 -56 -76 -110 -79 -119 -4 -9 -10 -19 -13 -22 -21 -15
-149 -294 -166 -360 -2 -8 -13 -46 -24 -85 -11 -38 -23 -81 -26 -95 -14 -69
-17 -87 -17 -112 0 -16 -4 -28 -9 -28 -6 0 -8 -7 -4 -15 3 -8 2 -15 -2 -16 -4
0 -20 -2 -37 -4 -120 -11 -185 -22 -194 -31 -8 -8 -8 -409 1 -459 13 -78 27
-104 87 -165 34 -34 61 -68 61 -75 0 -8 4 -15 9 -15 5 0 13 -9 16 -20 3 -11
12 -26 19 -32 12 -13 45 -71 123 -218 66 -123 135 -290 135 -325 0 -47 -9 -88
-44 -190 -34 -99 -137 -319 -168 -356 -11 -13 -24 -29 -30 -36 -12 -15 -125
-10 -291 11 -24 3 -65 8 -91 11 -27 3 -67 7 -90 10 -24 3 -68 8 -98 11 -30 2
-71 6 -90 8 -19 2 -69 7 -110 10 -41 4 -88 9 -104 12 -16 3 -104 7 -195 9
-128 3 -193 -1 -286 -15 -173 -28 -176 -28 -267 -50 -46 -12 -90 -22 -98 -24
-8 -2 -35 -9 -60 -16 -25 -7 -52 -14 -60 -15 -8 -2 -43 -12 -77 -23 -33 -11
-65 -17 -71 -13 -11 7 -113 320 -127 391 -3 14 -7 34 -10 45 -18 83 -34 157
-39 186 -3 19 -8 45 -10 59 -11 59 -18 107 -21 135 -2 17 -6 53 -9 80 -17 136
-20 209 -20 440 -1 229 3 320 21 460 4 28 6 60 7 73 0 12 2 22 6 22 3 0 5 12
5 28 1 41 28 189 54 295 5 20 7 37 4 37 -3 0 -1 6 4 13 6 6 10 19 11 27 0 8
10 49 22 90 12 41 23 82 25 90 2 8 4 15 4 15 1 0 79 221 85 240 2 6 7 19 11
30 59 146 79 191 87 196 5 3 9 9 7 13 -2 8 61 148 71 156 3 3 14 25 25 49 11
24 24 49 30 55 5 7 17 25 26 41 41 78 64 120 69 125 15 15 50 71 50 80 0 5 5
10 10 10 6 0 10 4 10 10 0 5 27 47 60 92 33 46 68 94 78 108 9 13 24 32 33 41
9 9 21 24 25 32 40 68 347 391 483 507 36 30 72 62 80 70 9 8 32 26 51 40 19
14 42 32 52 40 24 22 37 31 93 70 28 19 52 38 53 43 2 4 10 7 18 7 8 0 14 3
14 8 0 4 39 32 88 62 48 30 89 57 92 61 3 3 15 9 28 13 12 4 22 12 22 17 0 6
4 8 9 4 5 -3 12 -1 16 4 3 5 18 16 33 24 15 7 52 27 82 44 72 40 124 67 130
68 3 1 31 13 63 28 31 15 85 39 120 53 34 14 76 32 92 39 43 19 295 106 324
111 13 3 32 9 43 15 10 5 18 7 18 5 0 -3 11 -1 25 4 14 5 36 12 48 14 12 2 51
12 87 21 36 9 77 17 92 18 15 1 30 6 34 10 9 9 26 9 39 -1z m1636 -36 c60 -13
115 -27 129 -33 8 -3 20 -7 25 -8 6 0 17 -4 25 -7 8 -3 56 -18 105 -33 275
-85 588 -231 865 -404 58 -36 110 -69 115 -73 6 -5 46 -34 90 -65 251 -178
487 -397 705 -654 77 -91 160 -196 160 -204 0 -2 6 -13 14 -22 34 -41 86 -114
86 -119 0 -3 11 -20 24 -37 35 -47 116 -184 116 -196 0 -6 5 -11 10 -11 6 0
10 -5 10 -10 0 -6 12 -29 26 -52 14 -23 27 -46 28 -52 1 -6 6 -18 11 -26 25
-40 55 -103 55 -115 0 -7 3 -15 8 -17 30 -13 222 -547 257 -716 2 -9 9 -39 15
-67 7 -27 14 -59 15 -70 2 -11 6 -33 10 -50 3 -16 8 -43 11 -60 2 -16 7 -41
11 -55 3 -14 7 -36 8 -50 1 -14 5 -52 9 -85 4 -33 9 -73 11 -89 26 -210 26
-595 0 -821 -8 -76 -24 -191 -30 -226 -2 -9 -6 -34 -9 -55 -4 -22 -20 -97 -37
-169 -17 -71 -32 -138 -34 -148 -2 -10 -16 -57 -31 -105 -15 -48 -28 -89 -29
-92 -6 -28 -48 -141 -54 -144 -4 -3 -37 4 -72 14 -35 11 -73 22 -84 25 -11 2
-81 20 -155 40 -74 19 -150 38 -169 41 -18 3 -43 8 -55 10 -129 29 -226 39
-381 38 -120 0 -252 -8 -351 -19 -41 -5 -112 -12 -199 -19 -27 -3 -63 -7 -80
-10 -16 -2 -59 -7 -95 -11 -36 -3 -76 -8 -90 -10 -45 -8 -184 -19 -241 -19
-64 -1 -75 8 -120 93 -13 25 -27 49 -32 52 -5 3 -9 9 -8 12 0 4 -14 37 -31 74
-31 70 -51 115 -52 123 -1 3 -9 25 -18 50 -66 176 -61 204 91 500 41 80 79
155 85 167 6 13 14 23 19 23 4 0 7 5 7 10 0 10 38 71 70 115 8 11 34 38 57 61
45 43 66 83 79 149 10 52 11 461 1 471 -4 4 -20 9 -35 11 -76 7 -139 14 -157
18 -11 2 -26 4 -33 4 -6 1 -11 4 -11 9 1 4 1 9 -1 12 -1 3 -3 16 -6 30 -2 14
-10 50 -16 80 -7 30 -12 61 -11 68 0 6 -3 12 -8 12 -5 0 -9 8 -9 18 0 31 -57
180 -114 297 -63 132 -148 261 -249 381 -77 92 -228 237 -253 242 -8 2 -14 7
-14 12 0 10 -174 130 -189 130 -6 0 -11 3 -11 8 0 4 -10 12 -23 18 -99 51
-232 115 -280 135 l-58 23 6 126 c3 69 8 175 10 235 12 268 17 323 36 400 14
57 73 199 89 215 3 3 18 24 33 48 83 129 226 259 397 363 l85 51 -85 -6 c-170
-12 -345 -53 -442 -103 -43 -21 -33 1 25 59 51 52 79 77 146 128 51 39 234
149 241 145 4 -2 17 -6 31 -9z m-936 -1374 c1 -4 11 -29 23 -55 46 -102 156
-227 256 -291 31 -20 58 -36 61 -36 2 0 69 -31 149 -70 79 -38 149 -70 155
-70 6 0 11 -4 11 -10 0 -5 5 -10 11 -10 13 0 158 -94 214 -139 202 -163 366
-391 472 -656 14 -33 26 -67 28 -75 2 -8 13 -46 24 -84 11 -38 23 -88 26 -110
3 -23 8 -49 11 -58 7 -22 6 -22 -47 1 -42 18 -79 32 -89 36 -3 1 -18 7 -35 14
-81 32 -152 57 -168 60 -4 0 -21 8 -37 16 -16 8 -32 15 -35 15 -3 -1 -54 15
-113 34 -116 37 -250 75 -290 82 -14 3 -29 7 -34 10 -4 3 -16 7 -25 9 -10 2
-64 13 -119 24 -98 20 -120 24 -249 39 -71 9 -318 7 -390 -2 -140 -19 -191
-27 -205 -31 -8 -2 -31 -6 -50 -9 -19 -3 -45 -8 -57 -11 -30 -7 -63 -14 -88
-20 -80 -17 -160 -37 -175 -42 -20 -8 -30 -11 -59 -17 -13 -3 -60 -17 -105
-32 -44 -14 -88 -27 -96 -29 -8 -2 -71 -24 -140 -50 -69 -25 -129 -48 -135
-49 -9 -3 -32 -11 -98 -38 -15 -6 -29 -9 -31 -7 -2 2 16 63 39 134 68 211 138
368 238 535 50 83 59 96 85 125 6 7 12 17 12 21 0 26 263 294 289 294 6 0 14
6 18 13 4 6 17 17 28 24 85 51 163 90 249 124 156 63 243 116 326 199 73 74
83 87 110 153 20 49 34 64 35 39z m-87 -1486 l0 -84 -37 -8 c-20 -4 -40 -8
-46 -9 -68 -15 -275 -76 -410 -121 -93 -31 -176 -56 -182 -57 -7 0 -13 -4 -13
-9 0 -4 -3 -7 -7 -6 -5 0 -15 -1 -23 -5 -58 -23 -146 -51 -152 -49 -5 1 -8 -2
-8 -6 0 -5 -18 -14 -39 -21 -22 -6 -56 -19 -78 -28 -21 -9 -42 -18 -48 -19 -5
-1 -59 -23 -118 -48 -60 -25 -112 -46 -116 -46 -7 0 -4 186 4 208 3 7 9 11 14
8 5 -4 11 -2 13 3 7 19 434 212 497 225 9 2 30 9 46 15 17 7 38 15 48 17 9 2
25 6 35 9 151 42 192 53 192 49 0 -3 6 -2 13 3 6 4 17 8 22 9 6 1 26 4 46 8
20 3 42 8 50 10 8 3 30 7 49 10 19 3 58 8 85 12 28 4 71 8 97 8 27 1 48 5 48
9 0 5 4 6 9 2 6 -3 9 -43 9 -89z m132 80 c85 -11 178 -26 191 -30 8 -3 31 -8
53 -11 21 -3 42 -7 46 -10 5 -3 21 -7 37 -9 15 -3 57 -12 93 -21 36 -9 72 -18
80 -20 8 -2 26 -8 40 -13 14 -5 28 -10 33 -10 35 -4 78 -16 83 -23 3 -5 10 -7
15 -4 5 4 9 1 9 -5 0 -6 4 -8 10 -5 8 5 230 -61 285 -85 11 -5 56 -21 100 -36
44 -15 121 -43 170 -63 l90 -36 5 -50 c3 -27 2 -60 -2 -73 -4 -13 -5 -21 0
-19 4 3 7 -17 7 -44 1 -27 -1 -49 -2 -49 -2 0 -77 38 -168 85 -91 47 -165 82
-165 79 0 -4 -6 -2 -12 4 -21 17 -339 140 -408 158 -8 2 -31 8 -50 13 -19 5
-69 19 -110 30 -41 12 -90 24 -109 27 -18 3 -43 8 -55 10 -88 19 -261 46 -311
48 -6 1 -10 38 -11 88 -1 59 2 85 10 83 6 -2 27 -6 46 -9z m168 -305 c12 -6
22 -10 22 -7 0 15 407 -102 436 -125 7 -6 16 -9 20 -8 5 1 20 -3 34 -8 14 -6
66 -28 115 -48 50 -21 118 -50 153 -66 34 -16 67 -29 72 -29 6 0 10 -4 10 -10
0 -5 5 -10 12 -10 16 0 297 -140 304 -151 3 -5 10 -7 15 -4 5 4 9 2 9 -2 0 -5
20 -17 45 -28 25 -11 45 -23 45 -27 0 -15 -48 -39 -87 -42 -75 -8 -188 28
-381 120 -73 35 -134 64 -137 64 -2 1 -39 17 -81 36 -72 32 -258 101 -297 109
-9 2 -21 6 -26 10 -9 5 -44 13 -131 30 -14 3 -34 7 -46 10 -93 21 -295 25
-317 7 -9 -8 -12 -142 -11 -594 l0 -583 39 -100 c21 -55 43 -113 50 -130 7
-16 23 -55 36 -85 13 -30 43 -93 67 -140 50 -100 73 -171 62 -191 -5 -7 -6
-17 -4 -21 3 -4 0 -8 -5 -8 -6 0 -11 -6 -11 -13 0 -22 -89 -64 -160 -77 -89
-16 -163 -14 -202 6 -64 32 -263 182 -343 257 -11 11 -35 31 -54 46 -19 14
-44 35 -56 46 -11 11 -52 47 -90 80 -63 55 -144 126 -171 150 -6 6 -40 35 -75
65 -35 30 -74 65 -87 78 -12 12 -26 22 -29 22 -3 0 -45 39 -92 88 -149 150
-240 279 -345 488 -36 72 -66 138 -66 147 0 9 -4 19 -10 22 -36 22 17 72 160
151 19 10 42 24 50 30 35 26 439 234 455 234 3 0 27 11 54 24 27 13 70 29 95
37 25 7 46 17 46 21 0 4 3 7 8 6 6 -2 142 40 192 59 8 3 20 7 25 8 6 2 39 10
75 19 78 20 106 26 143 31 93 14 112 17 115 20 9 9 330 -3 350 -14z m127 -361
c22 -11 44 -19 48 -20 5 0 30 -10 58 -21 l49 -21 -5 -47 c-3 -25 -8 -75 -11
-111 -7 -86 -11 -131 -18 -215 -4 -38 -9 -97 -12 -130 -2 -33 -6 -71 -9 -85
-2 -14 -6 -63 -10 -110 -4 -47 -8 -103 -10 -125 -3 -22 -7 -69 -10 -104 -3
-35 -7 -66 -9 -68 -4 -4 -140 32 -155 41 -10 6 -7 178 4 195 3 6 2 11 -4 11
-7 0 -7 8 -1 26 7 18 7 30 0 39 -5 6 -7 15 -3 19 4 4 8 46 9 94 1 48 5 186 9
307 4 121 8 248 9 283 1 71 6 73 71 42z m548 -240 c48 -25 48 -25 42 -65 -7
-53 -9 -63 -35 -179 -12 -54 -23 -110 -25 -125 -2 -14 -4 -27 -6 -28 -1 -2 -3
-7 -4 -13 -1 -5 -4 -11 -5 -12 -1 -2 -4 -16 -5 -33 -2 -16 -4 -30 -5 -30 -1 0
-4 -9 -6 -20 -1 -11 -5 -29 -7 -40 -9 -34 -39 -179 -43 -205 -13 -79 -18 -85
-64 -83 -43 3 -62 15 -55 37 3 10 12 101 20 211 9 132 22 297 30 390 2 28 7
90 11 139 3 50 8 97 9 105 2 9 4 19 4 23 1 4 22 -5 49 -20 26 -15 69 -39 95
-52z m-2060 -923 c12 -10 47 -40 77 -67 77 -68 93 -81 136 -115 20 -16 44 -37
52 -45 8 -8 54 -45 101 -83 47 -37 93 -73 101 -80 46 -37 206 -152 275 -198
44 -29 83 -58 87 -64 4 -5 8 -6 8 -2 0 5 12 0 28 -11 80 -57 224 -112 277
-106 74 8 136 24 210 55 17 7 32 13 35 14 19 5 116 55 169 87 34 21 65 38 67
38 3 0 10 5 17 10 7 6 37 26 67 47 90 59 310 226 310 235 0 4 5 8 10 8 6 0 21
10 34 23 13 12 45 40 71 62 48 40 98 85 168 151 20 19 41 33 46 30 10 -6 26
-74 22 -94 -1 -8 -14 -26 -29 -41 -15 -14 -56 -60 -92 -100 -36 -41 -80 -88
-98 -105 -88 -81 -112 -102 -182 -154 -41 -32 -76 -60 -78 -64 -2 -5 -8 -8
-13 -8 -11 0 -70 -40 -81 -55 -4 -5 -8 -7 -8 -3 0 4 -30 -13 -67 -38 -38 -24
-74 -44 -80 -44 -7 0 -13 -4 -13 -9 0 -5 -13 -14 -29 -21 l-30 -12 27 -42 c14
-22 38 -74 52 -113 l26 -73 92 58 c51 31 101 62 110 67 16 9 173 118 197 137
138 106 209 165 277 228 26 25 54 50 60 56 7 6 35 34 61 63 39 41 51 49 61 39
29 -30 44 -114 24 -138 -23 -28 -207 -177 -363 -294 -55 -42 -107 -82 -115
-89 -8 -8 -35 -27 -60 -43 -25 -16 -49 -34 -53 -41 -4 -7 -12 -13 -17 -13 -9
0 -36 -20 -66 -48 -8 -7 -14 -10 -14 -5 0 4 -4 3 -8 -3 -17 -27 -343 -222
-374 -224 -4 0 -28 -9 -52 -20 -66 -28 -118 -35 -241 -34 -127 1 -209 21 -345
87 -91 43 -313 175 -318 189 -2 4 -10 8 -18 8 -8 0 -14 5 -14 10 0 6 -6 10
-12 10 -7 0 -55 32 -106 70 -52 39 -98 70 -103 70 -5 0 -9 4 -9 8 0 4 -18 19
-40 32 -22 14 -40 31 -40 39 0 8 -3 12 -6 8 -6 -6 -9 -4 -118 88 -173 145
-247 246 -247 337 0 24 36 140 98 315 28 79 19 77 86 20z m-1478 -492 c297
-11 452 -20 530 -30 17 -2 60 -7 97 -10 37 -3 82 -10 99 -15 18 -5 36 -7 40
-4 5 3 9 1 9 -3 0 -5 8 -9 18 -10 26 -2 179 -62 227 -89 35 -19 40 -26 38 -56
-2 -42 -11 -133 -13 -133 0 0 -3 -25 -5 -55 -2 -30 -6 -73 -9 -95 -12 -98 -16
-131 -20 -150 -2 -11 -7 -44 -11 -74 -5 -40 -14 -61 -35 -80 -42 -40 -69 -61
-79 -61 -5 0 -11 -3 -13 -8 -4 -9 -176 -112 -188 -112 -5 0 -10 -3 -12 -7 -3
-9 -62 -44 -118 -71 -19 -9 -37 -19 -40 -22 -3 -3 -25 -15 -50 -28 -25 -13
-99 -52 -165 -87 -66 -34 -186 -97 -267 -138 l-147 -75 -53 57 c-29 31 -78 85
-108 120 -30 35 -61 70 -67 77 -7 7 -13 16 -13 21 0 4 -9 14 -20 21 -11 7 -20
17 -20 23 0 6 -6 16 -12 23 -36 36 -168 221 -168 235 0 6 -4 11 -10 11 -5 0
-10 7 -10 15 0 8 -4 15 -9 15 -5 0 -14 14 -21 30 -7 17 -17 30 -22 30 -5 0 -7
4 -4 9 4 5 3 11 -2 13 -7 3 -82 125 -82 133 0 2 -13 27 -30 55 -16 28 -30 57
-30 65 0 8 -3 15 -8 15 -4 0 -14 15 -21 33 -8 17 -27 59 -43 92 -15 33 -32 81
-36 107 -9 46 -9 47 22 59 17 6 37 13 44 15 8 1 21 6 30 10 9 4 22 8 27 10 6
1 48 14 95 29 122 39 314 85 366 89 25 2 47 5 49 7 4 4 43 4 270 -6z m5680
-46 c28 -6 59 -12 70 -13 36 -6 158 -37 245 -64 47 -14 88 -27 93 -28 4 -1 9
-3 12 -4 3 -1 8 -3 13 -4 52 -13 125 -43 129 -54 3 -7 1 -23 -5 -35 -191 -400
-287 -559 -500 -835 -46 -59 -87 -108 -93 -110 -5 -2 -9 -8 -9 -12 0 -9 -50
-65 -162 -183 -50 -52 -71 -67 -80 -60 -12 10 -191 102 -767 395 -266 136
-314 182 -340 324 -6 32 -14 73 -17 89 -25 127 -35 298 -22 355 10 40 44 93
78 120 45 35 144 75 215 85 28 4 61 9 75 11 50 8 118 13 235 19 66 4 121 8
122 9 8 8 667 3 708 -5z m-4272 -376 c231 -159 288 -198 311 -213 76 -49 212
-145 214 -152 2 -4 8 -8 13 -8 8 0 148 -95 176 -119 7 -6 15 -11 19 -11 3 0
24 -14 45 -31 21 -17 39 -27 39 -22 0 4 4 3 8 -3 4 -6 45 -37 92 -69 136 -93
245 -168 250 -174 3 -3 19 -13 35 -22 32 -16 37 -13 175 94 37 29 172 107 250
145 97 46 246 103 254 95 2 -3 11 -1 18 3 7 5 18 9 23 10 6 1 24 5 40 8 273
55 616 0 890 -144 39 -21 124 -65 190 -100 66 -34 125 -65 130 -68 6 -4 16 -7
23 -8 7 -1 20 -8 28 -15 8 -6 43 -26 77 -44 98 -50 239 -126 279 -152 21 -13
40 -23 43 -23 12 0 122 -76 135 -94 8 -11 23 -36 32 -57 l16 -37 -31 -29 c-18
-16 -77 -63 -132 -106 -55 -42 -105 -81 -112 -87 -7 -5 -16 -10 -22 -10 -5 0
-11 -4 -13 -9 -1 -4 -46 -36 -98 -69 -52 -34 -100 -65 -106 -69 -11 -8 -22
-15 -94 -54 -25 -13 -47 -27 -50 -30 -11 -12 -250 -129 -345 -169 -55 -23
-109 -45 -120 -50 -11 -5 -47 -19 -80 -31 -33 -11 -67 -23 -75 -26 -8 -4 -17
-7 -20 -8 -3 0 -43 -13 -90 -28 -76 -23 -190 -54 -230 -62 -8 -2 -15 -4 -15
-5 0 -1 -9 -3 -19 -5 -11 -2 -51 -11 -90 -19 -39 -9 -84 -18 -101 -21 -16 -3
-43 -8 -60 -11 -16 -3 -46 -7 -65 -9 -19 -2 -35 -4 -35 -5 0 -1 -15 -3 -34 -5
-19 -2 -51 -6 -72 -9 -43 -6 -215 -19 -269 -20 -21 -1 -34 4 -33 10 2 11 9
121 18 274 2 41 6 107 9 145 3 39 8 111 11 160 3 50 8 117 10 150 10 121 15
192 20 288 3 54 6 102 6 105 3 18 -2 22 -13 12 -7 -6 -35 -25 -63 -43 -27 -17
-56 -37 -63 -44 -7 -7 -17 -13 -22 -13 -5 0 -22 -11 -38 -25 -23 -19 -28 -31
-25 -52 2 -16 6 -50 8 -78 4 -63 14 -185 20 -250 3 -27 7 -76 10 -107 3 -32 7
-84 10 -115 3 -32 7 -80 10 -108 13 -151 17 -205 19 -255 l1 -55 -145 1 c-162
1 -311 12 -425 30 -42 7 -107 15 -125 16 -19 1 -234 46 -277 57 -18 5 -33 7
-33 4 0 -3 -6 0 -14 6 -8 6 -18 11 -22 10 -5 -1 -11 0 -14 1 -3 1 -12 3 -20 5
-107 24 -483 156 -505 176 -5 5 -17 9 -27 9 -10 0 -18 4 -18 8 0 5 -6 9 -12 9
-18 0 -253 119 -373 188 -156 90 -404 260 -469 320 -6 6 -32 27 -59 48 -26 21
-45 42 -43 45 2 4 7 32 10 62 8 62 5 59 66 92 25 14 61 34 80 45 19 11 62 35
95 53 33 18 155 86 270 150 116 64 237 132 270 150 33 19 83 45 110 59 28 14
52 29 55 32 3 3 19 13 35 22 17 8 45 23 63 32 28 15 32 22 33 59 0 22 2 48 3
56 3 15 16 156 21 235 1 22 6 76 10 120 14 150 12 135 20 135 3 0 56 -35 118
-77z"/>
<path d="M5115 7237 c0 -70 -4 -125 -10 -129 -7 -5 -6 -8 1 -8 6 0 8 -19 5
-52 -9 -83 -3 -106 30 -124 48 -24 123 -109 162 -183 20 -37 34 -71 30 -75 -3
-3 -2 -6 4 -6 6 0 14 -12 19 -27 4 -16 8 -30 9 -33 1 -3 7 -26 15 -52 7 -27
15 -48 19 -48 3 -1 29 -3 56 -6 28 -3 68 -6 90 -7 22 -1 45 -6 52 -10 6 -4 14
-3 18 3 4 6 11 8 16 4 6 -3 42 -8 82 -10 40 -2 101 -6 137 -9 36 -2 142 -7
235 -11 l170 -6 -31 34 c-17 18 -40 43 -50 56 -47 58 -181 186 -254 242 -25
19 -47 38 -50 41 -13 14 -179 119 -189 119 -6 0 -11 5 -11 12 0 6 -3 9 -6 6
-3 -3 -29 9 -59 27 -30 17 -112 58 -182 89 l-128 57 -55 77 c-30 42 -61 83
-68 91 -7 8 -20 24 -29 37 -8 13 -18 24 -22 24 -3 0 -6 -55 -6 -123z"/>
<path d="M4860 5512 c-19 -8 -46 -19 -60 -25 -14 -5 -29 -11 -35 -13 -5 -1
-27 -9 -48 -18 l-38 -17 6 -77 c3 -42 8 -95 10 -117 6 -59 16 -163 20 -215 2
-25 7 -74 10 -110 3 -36 8 -87 11 -115 2 -27 6 -68 8 -90 2 -22 7 -78 11 -125
7 -74 11 -125 14 -153 1 -5 6 -5 11 -2 6 4 23 8 38 11 15 3 34 7 42 11 18 7
40 13 62 15 16 2 17 15 13 148 -12 372 -17 512 -20 595 -2 50 -4 135 -5 191
-1 55 -5 105 -8 111 -5 6 -19 5 -42 -5z"/>
<path d="M4335 5288 c-49 -27 -93 -52 -97 -56 -3 -4 2 -45 13 -92 10 -47 21
-96 23 -110 2 -14 16 -79 31 -145 15 -66 28 -129 29 -140 2 -11 6 -31 11 -44
4 -13 9 -35 10 -50 5 -40 45 -224 50 -229 5 -5 43 -4 70 2 11 2 23 5 26 5 6 1
5 21 -5 146 -5 55 -11 137 -21 271 -2 28 -6 82 -9 120 -7 75 -12 137 -21 254
-7 88 -10 108 -16 113 -2 3 -44 -18 -94 -45z"/>
</g>
</svg>
