<svg id="Layer_2" data-name="Layer 2" xmlns="http://www.w3.org/2000/svg" viewBox="0 0 660.62 209.8"><defs><style>.cls-1{fill:none;}.cls-2{fill:#fff;}.cls-3{fill:#ec1c24;stroke:#fff;stroke-miterlimit:10;stroke-width:3px;}</style></defs><rect class="cls-1" x="347.69" y="95.19" width="49.64" height="19.15"/><rect class="cls-1" x="505.31" y="95.19" width="9.04" height="19.15"/><path d="M650.34,146.54V32.2H28V242H240.58a50.91,50.91,0,0,0,21.33-4.8A67.88,67.88,0,0,0,268,234v8H688.62V146.54ZM269.16,100.35H108.4v16.33H269.16v74a14.92,14.92,0,0,1-2.72,8,36.11,36.11,0,0,1-6.8,7.76,38.37,38.37,0,0,1-9.12,5.85,23.58,23.58,0,0,1-9.94,2.32H55.31V173.85H216.08V157.52H55.31v-98H269.16ZM506,214.69H295.3V59.52H506Zm155.31,0H531.75V173.85h37.92V100.08H532.13V59.52H623V173.85h38.29Zm-128-68.15V127.39h9v19.15Z" transform="translate(-28 -32.2)"/><path d="M452.64,100.08H348.38v73.77H452.64Zm-27.31,46.46H375.69V127.39h49.64Z" transform="translate(-28 -32.2)"/><path class="cls-2" d="M240.58,219.59H50.41V169H211.18v-6.53H50.41V54.61H274.07v50.64H113.3v6.53H274.07v78.95a19.77,19.77,0,0,1-3.51,10.69,41.24,41.24,0,0,1-7.72,8.81,43.18,43.18,0,0,1-10.28,6.6A28.64,28.64,0,0,1,240.58,219.59Zm-180.37-9.8H240.58a18.93,18.93,0,0,0,7.89-1.87,33.32,33.32,0,0,0,8-5.1,31.36,31.36,0,0,0,5.9-6.71,10.29,10.29,0,0,0,1.94-5.38V121.59H103.49V95.45H264.26v-31h-204v88.2H221v26.14H60.21Z" transform="translate(-28 -32.2)"/><path class="cls-2" d="M510.9,219.59H290.4v-165H510.9Zm-210.7-9.8H501.1V64.42H300.2Zm157.34-31H343.48V95.18H457.54ZM353.29,169h94.45V105H353.29Z" transform="translate(-28 -32.2)"/><path class="cls-2" d="M666.21,219.59H526.85V169h37.91V105H527.23V54.61h100.7V169h38.28Zm-129.56-9.8H656.4v-31H618.12V64.42H537V95.18h37.54v83.58H536.65Z" transform="translate(-28 -32.2)"/><path class="cls-3" d="M60.21,209.79H240.58a18.93,18.93,0,0,0,7.89-1.87,33.32,33.32,0,0,0,8-5.1,31.36,31.36,0,0,0,5.9-6.71,10.29,10.29,0,0,0,1.94-5.38V121.59H103.49V95.45H264.26v-31h-204v88.2H221v26.14H60.21Z" transform="translate(-28 -32.2)"/><path class="cls-3" d="M300.2,209.79H501.1V64.42H300.2Zm157.34-31H343.48V95.18H457.54Z" transform="translate(-28 -32.2)"/><path class="cls-3" d="M536.65,209.79H656.4v-31H618.12V64.42H537V95.18h37.54v83.58H536.65Z" transform="translate(-28 -32.2)"/></svg>
